<?xml version="1.0" encoding="UTF-8" standalone="no"?>
<!DOCTYPE svg PUBLIC "-//W3C//DTD SVG 1.1//EN"
 "http://www.w3.org/Graphics/SVG/1.1/DTD/svg11.dtd">
<!-- Generated by graphviz version 2.47.0 (20210316.0004)
 -->
<!-- Title: dbml Pages: 1 -->
<svg width="2393pt" height="2895pt"
 viewBox="0.00 0.00 2392.88 2895.35" xmlns="http://www.w3.org/2000/svg" xmlns:xlink="http://www.w3.org/1999/xlink">
<g id="graph0" class="graph" transform="scale(1 1) rotate(0) translate(4 2891.35)">
<title>dbml</title>
<!-- AccessLog -->
<g id="AccessLog" class="node">
<title>AccessLog</title>
<ellipse fill="none" stroke="black" stroke-width="0" cx="309.71" cy="-675.39" rx="309.93" ry="214.92"/>
<polygon fill="#1d71b8" stroke="transparent" points="92.71,-765.39 92.71,-825.39 526.71,-825.39 526.71,-765.39 92.71,-765.39"/>
<polygon fill="none" stroke="#29235c" points="92.71,-765.39 92.71,-825.39 526.71,-825.39 526.71,-765.39 92.71,-765.39"/>
<text text-anchor="start" x="169.22" y="-786.59" font-family="Helvetica,sans-Serif" font-weight="bold" font-size="32.00" fill="#ffffff"> &#160;&#160;&#160;&#160;&#160;&#160;AccessLog &#160;&#160;&#160;&#160;&#160;&#160;</text>
<polygon fill="#e7e2dd" stroke="transparent" points="92.71,-705.39 92.71,-765.39 526.71,-765.39 526.71,-705.39 92.71,-705.39"/>
<polygon fill="none" stroke="#29235c" points="92.71,-705.39 92.71,-765.39 526.71,-765.39 526.71,-705.39 92.71,-705.39"/>
<text text-anchor="start" x="103.71" y="-726.59" font-family="Helvetica,sans-Serif" font-weight="bold" font-size="32.00" fill="#29235c">id</text>
<text text-anchor="start" x="128.6" y="-726.59" font-family="Helvetica,sans-Serif" font-size="32.00" fill="#29235c"> &#160;&#160;&#160;</text>
<text text-anchor="start" x="373.5" y="-726.59" font-family="Helvetica,sans-Serif" font-style="italic" font-size="32.00" fill="#29235c">INTEGER</text>
<polygon fill="#e7e2dd" stroke="transparent" points="92.71,-645.39 92.71,-705.39 526.71,-705.39 526.71,-645.39 92.71,-645.39"/>
<polygon fill="none" stroke="#29235c" points="92.71,-645.39 92.71,-705.39 526.71,-705.39 526.71,-645.39 92.71,-645.39"/>
<text text-anchor="start" x="103.55" y="-665.59" font-family="Helvetica,sans-Serif" font-size="32.00" fill="#29235c">user_account_id &#160;&#160;&#160;</text>
<text text-anchor="start" x="373.6" y="-666.59" font-family="Helvetica,sans-Serif" font-style="italic" font-size="32.00" fill="#29235c">INTEGER</text>
<polygon fill="#e7e2dd" stroke="transparent" points="92.71,-585.39 92.71,-645.39 526.71,-645.39 526.71,-585.39 92.71,-585.39"/>
<polygon fill="none" stroke="#29235c" points="92.71,-585.39 92.71,-645.39 526.71,-645.39 526.71,-585.39 92.71,-585.39"/>
<text text-anchor="start" x="103.71" y="-605.59" font-family="Helvetica,sans-Serif" font-size="32.00" fill="#29235c">login_time &#160;&#160;&#160;</text>
<text text-anchor="start" x="353.95" y="-606.59" font-family="Helvetica,sans-Serif" font-style="italic" font-size="32.00" fill="#29235c">DATETIME</text>
<polygon fill="#e7e2dd" stroke="transparent" points="92.71,-525.39 92.71,-585.39 526.71,-585.39 526.71,-525.39 92.71,-525.39"/>
<polygon fill="none" stroke="#29235c" points="92.71,-525.39 92.71,-585.39 526.71,-585.39 526.71,-525.39 92.71,-525.39"/>
<text text-anchor="start" x="103.71" y="-545.59" font-family="Helvetica,sans-Serif" font-size="32.00" fill="#29235c">logout_time &#160;&#160;&#160;</text>
<text text-anchor="start" x="353.95" y="-546.59" font-family="Helvetica,sans-Serif" font-style="italic" font-size="32.00" fill="#29235c">DATETIME</text>
<polygon fill="none" stroke="#29235c" stroke-width="2" points="91.71,-524.39 91.71,-826.39 527.71,-826.39 527.71,-524.39 91.71,-524.39"/>
</g>
<!-- UserAccount -->
<g id="UserAccount" class="node">
<title>UserAccount</title>
<ellipse fill="none" stroke="black" stroke-width="0" cx="985.64" cy="-705.39" rx="253.7" ry="172.57"/>
<polygon fill="#1d71b8" stroke="transparent" points="808.64,-765.39 808.64,-825.39 1163.64,-825.39 1163.64,-765.39 808.64,-765.39"/>
<polygon fill="none" stroke="#29235c" points="808.64,-765.39 808.64,-825.39 1163.64,-825.39 1163.64,-765.39 808.64,-765.39"/>
<text text-anchor="start" x="832.32" y="-786.59" font-family="Helvetica,sans-Serif" font-weight="bold" font-size="32.00" fill="#ffffff"> &#160;&#160;&#160;&#160;&#160;&#160;UserAccount &#160;&#160;&#160;&#160;&#160;&#160;</text>
<polygon fill="#e7e2dd" stroke="transparent" points="808.64,-705.39 808.64,-765.39 1163.64,-765.39 1163.64,-705.39 808.64,-705.39"/>
<polygon fill="none" stroke="#29235c" points="808.64,-705.39 808.64,-765.39 1163.64,-765.39 1163.64,-705.39 808.64,-705.39"/>
<text text-anchor="start" x="819.64" y="-726.59" font-family="Helvetica,sans-Serif" font-weight="bold" font-size="32.00" fill="#29235c">id</text>
<text text-anchor="start" x="844.53" y="-726.59" font-family="Helvetica,sans-Serif" font-size="32.00" fill="#29235c"> &#160;&#160;&#160;</text>
<text text-anchor="start" x="1010.43" y="-726.59" font-family="Helvetica,sans-Serif" font-style="italic" font-size="32.00" fill="#29235c">INTEGER</text>
<polygon fill="#e7e2dd" stroke="transparent" points="808.64,-645.39 808.64,-705.39 1163.64,-705.39 1163.64,-645.39 808.64,-645.39"/>
<polygon fill="none" stroke="#29235c" points="808.64,-645.39 808.64,-705.39 1163.64,-705.39 1163.64,-645.39 808.64,-645.39"/>
<text text-anchor="start" x="819.23" y="-665.59" font-family="Helvetica,sans-Serif" font-size="32.00" fill="#29235c">username &#160;&#160;&#160;</text>
<text text-anchor="start" x="996.43" y="-666.59" font-family="Helvetica,sans-Serif" font-style="italic" font-size="32.00" fill="#29235c">VARCHAR</text>
<polygon fill="#e7e2dd" stroke="transparent" points="808.64,-585.39 808.64,-645.39 1163.64,-645.39 1163.64,-585.39 808.64,-585.39"/>
<polygon fill="none" stroke="#29235c" points="808.64,-585.39 808.64,-645.39 1163.64,-645.39 1163.64,-585.39 808.64,-585.39"/>
<text text-anchor="start" x="819.64" y="-605.59" font-family="Helvetica,sans-Serif" font-size="32.00" fill="#29235c">server_id &#160;&#160;&#160;</text>
<text text-anchor="start" x="1010.43" y="-606.59" font-family="Helvetica,sans-Serif" font-style="italic" font-size="32.00" fill="#29235c">INTEGER</text>
<polygon fill="none" stroke="#29235c" stroke-width="2" points="807.14,-584.39 807.14,-826.39 1164.14,-826.39 1164.14,-584.39 807.14,-584.39"/>
</g>
<!-- AccessLog&#45;&gt;UserAccount -->
<!-- AccessLog&#45;&gt;UserAccount -->
<g id="edge2" class="edge">
<title>AccessLog:e&#45;&gt;UserAccount:w</title>
<path fill="none" stroke="#29235c" stroke-width="3" d="M527.71,-675.39C651.47,-675.39 678.94,-732.15 797.43,-735.25"/>
<polygon fill="#29235c" stroke="#29235c" stroke-width="3" points="797.6,-738.76 807.64,-735.39 797.69,-731.76 797.6,-738.76"/>
<text text-anchor="middle" x="801.42" y="-706.59" font-family="Helvetica,sans-Serif" font-size="32.00" fill="#29235c">*</text>
<text text-anchor="middle" x="518.82" y="-646.59" font-family="Helvetica,sans-Serif" font-size="32.00" fill="#29235c">1</text>
</g>
<!-- Server -->
<g id="Server" class="node">
<title>Server</title>
<ellipse fill="none" stroke="black" stroke-width="0" cx="1616.32" cy="-802.39" rx="264.42" ry="214.92"/>
<polygon fill="#1d71b8" stroke="transparent" points="1431.32,-892.39 1431.32,-952.39 1801.32,-952.39 1801.32,-892.39 1431.32,-892.39"/>
<polygon fill="none" stroke="#29235c" points="1431.32,-892.39 1431.32,-952.39 1801.32,-952.39 1801.32,-892.39 1431.32,-892.39"/>
<text text-anchor="start" x="1506.96" y="-913.59" font-family="Helvetica,sans-Serif" font-weight="bold" font-size="32.00" fill="#ffffff"> &#160;&#160;&#160;&#160;&#160;&#160;Server &#160;&#160;&#160;&#160;&#160;&#160;</text>
<polygon fill="#e7e2dd" stroke="transparent" points="1431.32,-832.39 1431.32,-892.39 1801.32,-892.39 1801.32,-832.39 1431.32,-832.39"/>
<polygon fill="none" stroke="#29235c" points="1431.32,-832.39 1431.32,-892.39 1801.32,-892.39 1801.32,-832.39 1431.32,-832.39"/>
<text text-anchor="start" x="1442.32" y="-853.59" font-family="Helvetica,sans-Serif" font-weight="bold" font-size="32.00" fill="#29235c">id</text>
<text text-anchor="start" x="1467.21" y="-853.59" font-family="Helvetica,sans-Serif" font-size="32.00" fill="#29235c"> &#160;&#160;&#160;</text>
<text text-anchor="start" x="1648.1" y="-853.59" font-family="Helvetica,sans-Serif" font-style="italic" font-size="32.00" fill="#29235c">INTEGER</text>
<polygon fill="#e7e2dd" stroke="transparent" points="1431.32,-772.39 1431.32,-832.39 1801.32,-832.39 1801.32,-772.39 1431.32,-772.39"/>
<polygon fill="none" stroke="#29235c" points="1431.32,-772.39 1431.32,-832.39 1801.32,-832.39 1801.32,-772.39 1431.32,-772.39"/>
<text text-anchor="start" x="1442.32" y="-792.59" font-family="Helvetica,sans-Serif" font-size="32.00" fill="#29235c">hostname &#160;&#160;&#160;</text>
<text text-anchor="start" x="1633.9" y="-793.59" font-family="Helvetica,sans-Serif" font-style="italic" font-size="32.00" fill="#29235c">VARCHAR</text>
<polygon fill="#e7e2dd" stroke="transparent" points="1431.32,-712.39 1431.32,-772.39 1801.32,-772.39 1801.32,-712.39 1431.32,-712.39"/>
<polygon fill="none" stroke="#29235c" points="1431.32,-712.39 1431.32,-772.39 1801.32,-772.39 1801.32,-712.39 1431.32,-712.39"/>
<text text-anchor="start" x="1442.29" y="-732.59" font-family="Helvetica,sans-Serif" font-size="32.00" fill="#29235c">ip_address &#160;&#160;&#160;</text>
<text text-anchor="start" x="1634.11" y="-733.59" font-family="Helvetica,sans-Serif" font-style="italic" font-size="32.00" fill="#29235c">VARCHAR</text>
<polygon fill="#e7e2dd" stroke="transparent" points="1431.32,-652.39 1431.32,-712.39 1801.32,-712.39 1801.32,-652.39 1431.32,-652.39"/>
<polygon fill="none" stroke="#29235c" points="1431.32,-652.39 1431.32,-712.39 1801.32,-712.39 1801.32,-652.39 1431.32,-652.39"/>
<text text-anchor="start" x="1442.32" y="-672.59" font-family="Helvetica,sans-Serif" font-size="32.00" fill="#29235c">location_id &#160;&#160;&#160;</text>
<text text-anchor="start" x="1648.1" y="-673.59" font-family="Helvetica,sans-Serif" font-style="italic" font-size="32.00" fill="#29235c">INTEGER</text>
<polygon fill="none" stroke="#29235c" stroke-width="2" points="1430.32,-651.39 1430.32,-953.39 1802.32,-953.39 1802.32,-651.39 1430.32,-651.39"/>
</g>
<!-- UserAccount&#45;&gt;Server -->
<!-- UserAccount&#45;&gt;Server -->
<g id="edge4" class="edge">
<title>UserAccount:e&#45;&gt;Server:w</title>
<path fill="none" stroke="#29235c" stroke-width="3" d="M1164.64,-615.39C1322.41,-615.39 1271.43,-851.89 1420.23,-862.05"/>
<polygon fill="#29235c" stroke="#29235c" stroke-width="3" points="1420.21,-865.55 1430.32,-862.39 1420.44,-858.55 1420.21,-865.55"/>
<text text-anchor="middle" x="1436.54" y="-833.59" font-family="Helvetica,sans-Serif" font-size="32.00" fill="#29235c">*</text>
<text text-anchor="middle" x="1155.75" y="-586.59" font-family="Helvetica,sans-Serif" font-size="32.00" fill="#29235c">1</text>
</g>
<!-- Application -->
<g id="Application" class="node">
<title>Application</title>
<ellipse fill="none" stroke="black" stroke-width="0" cx="309.71" cy="-2224.39" rx="243.49" ry="214.92"/>
<polygon fill="#1d71b8" stroke="transparent" points="139.71,-2314.39 139.71,-2374.39 479.71,-2374.39 479.71,-2314.39 139.71,-2314.39"/>
<polygon fill="none" stroke="#29235c" points="139.71,-2314.39 139.71,-2374.39 479.71,-2374.39 479.71,-2314.39 139.71,-2314.39"/>
<text text-anchor="start" x="169.22" y="-2335.59" font-family="Helvetica,sans-Serif" font-weight="bold" font-size="32.00" fill="#ffffff"> &#160;&#160;&#160;&#160;&#160;&#160;Application &#160;&#160;&#160;&#160;&#160;&#160;</text>
<polygon fill="#e7e2dd" stroke="transparent" points="139.71,-2254.39 139.71,-2314.39 479.71,-2314.39 479.71,-2254.39 139.71,-2254.39"/>
<polygon fill="none" stroke="#29235c" points="139.71,-2254.39 139.71,-2314.39 479.71,-2314.39 479.71,-2254.39 139.71,-2254.39"/>
<text text-anchor="start" x="150.71" y="-2275.59" font-family="Helvetica,sans-Serif" font-weight="bold" font-size="32.00" fill="#29235c">id</text>
<text text-anchor="start" x="175.6" y="-2275.59" font-family="Helvetica,sans-Serif" font-size="32.00" fill="#29235c"> &#160;&#160;&#160;</text>
<text text-anchor="start" x="326.5" y="-2275.59" font-family="Helvetica,sans-Serif" font-style="italic" font-size="32.00" fill="#29235c">INTEGER</text>
<polygon fill="#e7e2dd" stroke="transparent" points="139.71,-2194.39 139.71,-2254.39 479.71,-2254.39 479.71,-2194.39 139.71,-2194.39"/>
<polygon fill="none" stroke="#29235c" points="139.71,-2194.39 139.71,-2254.39 479.71,-2254.39 479.71,-2194.39 139.71,-2194.39"/>
<text text-anchor="start" x="150.71" y="-2214.59" font-family="Helvetica,sans-Serif" font-size="32.00" fill="#29235c">name &#160;&#160;&#160;</text>
<text text-anchor="start" x="312.29" y="-2215.59" font-family="Helvetica,sans-Serif" font-style="italic" font-size="32.00" fill="#29235c">VARCHAR</text>
<polygon fill="#e7e2dd" stroke="transparent" points="139.71,-2134.39 139.71,-2194.39 479.71,-2194.39 479.71,-2134.39 139.71,-2134.39"/>
<polygon fill="none" stroke="#29235c" points="139.71,-2134.39 139.71,-2194.39 479.71,-2194.39 479.71,-2134.39 139.71,-2134.39"/>
<text text-anchor="start" x="150.71" y="-2154.59" font-family="Helvetica,sans-Serif" font-size="32.00" fill="#29235c">version &#160;&#160;&#160;</text>
<text text-anchor="start" x="312.29" y="-2155.59" font-family="Helvetica,sans-Serif" font-style="italic" font-size="32.00" fill="#29235c">VARCHAR</text>
<polygon fill="#e7e2dd" stroke="transparent" points="139.71,-2074.39 139.71,-2134.39 479.71,-2134.39 479.71,-2074.39 139.71,-2074.39"/>
<polygon fill="none" stroke="#29235c" points="139.71,-2074.39 139.71,-2134.39 479.71,-2134.39 479.71,-2074.39 139.71,-2074.39"/>
<text text-anchor="start" x="150.68" y="-2094.59" font-family="Helvetica,sans-Serif" font-size="32.00" fill="#29235c">vendor_id &#160;&#160;&#160;</text>
<text text-anchor="start" x="326.6" y="-2095.59" font-family="Helvetica,sans-Serif" font-style="italic" font-size="32.00" fill="#29235c">INTEGER</text>
<polygon fill="none" stroke="#29235c" stroke-width="2" points="138.71,-2073.39 138.71,-2375.39 480.71,-2375.39 480.71,-2073.39 138.71,-2073.39"/>
</g>
<!-- Vendor -->
<g id="Vendor" class="node">
<title>Vendor</title>
<ellipse fill="none" stroke="black" stroke-width="0" cx="985.64" cy="-2284.39" rx="210.02" ry="130.22"/>
<polygon fill="#1d71b8" stroke="transparent" points="839.64,-2314.39 839.64,-2374.39 1132.64,-2374.39 1132.64,-2314.39 839.64,-2314.39"/>
<polygon fill="none" stroke="#29235c" points="839.64,-2314.39 839.64,-2374.39 1132.64,-2374.39 1132.64,-2314.39 839.64,-2314.39"/>
<text text-anchor="start" x="872.32" y="-2335.59" font-family="Helvetica,sans-Serif" font-weight="bold" font-size="32.00" fill="#ffffff"> &#160;&#160;&#160;&#160;&#160;&#160;Vendor &#160;&#160;&#160;&#160;&#160;&#160;</text>
<polygon fill="#e7e2dd" stroke="transparent" points="839.64,-2254.39 839.64,-2314.39 1132.64,-2314.39 1132.64,-2254.39 839.64,-2254.39"/>
<polygon fill="none" stroke="#29235c" points="839.64,-2254.39 839.64,-2314.39 1132.64,-2314.39 1132.64,-2254.39 839.64,-2254.39"/>
<text text-anchor="start" x="850.64" y="-2275.59" font-family="Helvetica,sans-Serif" font-weight="bold" font-size="32.00" fill="#29235c">id</text>
<text text-anchor="start" x="875.53" y="-2275.59" font-family="Helvetica,sans-Serif" font-size="32.00" fill="#29235c"> &#160;&#160;&#160;</text>
<text text-anchor="start" x="979.43" y="-2275.59" font-family="Helvetica,sans-Serif" font-style="italic" font-size="32.00" fill="#29235c">INTEGER</text>
<polygon fill="#e7e2dd" stroke="transparent" points="839.64,-2194.39 839.64,-2254.39 1132.64,-2254.39 1132.64,-2194.39 839.64,-2194.39"/>
<polygon fill="none" stroke="#29235c" points="839.64,-2194.39 839.64,-2254.39 1132.64,-2254.39 1132.64,-2194.39 839.64,-2194.39"/>
<text text-anchor="start" x="850.35" y="-2214.59" font-family="Helvetica,sans-Serif" font-size="32.00" fill="#29235c">name &#160;&#160;&#160;</text>
<text text-anchor="start" x="965.43" y="-2215.59" font-family="Helvetica,sans-Serif" font-style="italic" font-size="32.00" fill="#29235c">VARCHAR</text>
<polygon fill="none" stroke="#29235c" stroke-width="2" points="838.14,-2193.39 838.14,-2375.39 1133.14,-2375.39 1133.14,-2193.39 838.14,-2193.39"/>
</g>
<!-- Application&#45;&gt;Vendor -->
<!-- Application&#45;&gt;Vendor -->
<g id="edge6" class="edge">
<title>Application:e&#45;&gt;Vendor:w</title>
<path fill="none" stroke="#29235c" stroke-width="3" d="M480.71,-2104.39C655.3,-2104.39 660.44,-2277.42 828.41,-2284.18"/>
<polygon fill="#29235c" stroke="#29235c" stroke-width="3" points="828.58,-2287.69 838.64,-2284.39 828.72,-2280.69 828.58,-2287.69"/>
<text text-anchor="middle" x="832.42" y="-2255.59" font-family="Helvetica,sans-Serif" font-size="32.00" fill="#29235c">*</text>
<text text-anchor="middle" x="471.82" y="-2075.59" font-family="Helvetica,sans-Serif" font-size="32.00" fill="#29235c">1</text>
</g>
<!-- ConfigurationItem -->
<g id="ConfigurationItem" class="node">
<title>ConfigurationItem</title>
<ellipse fill="none" stroke="black" stroke-width="0" cx="309.71" cy="-1776.39" rx="284.01" ry="214.92"/>
<polygon fill="#1d71b8" stroke="transparent" points="110.71,-1866.39 110.71,-1926.39 508.71,-1926.39 508.71,-1866.39 110.71,-1866.39"/>
<polygon fill="none" stroke="#29235c" points="110.71,-1866.39 110.71,-1926.39 508.71,-1926.39 508.71,-1866.39 110.71,-1866.39"/>
<text text-anchor="start" x="121.22" y="-1887.59" font-family="Helvetica,sans-Serif" font-weight="bold" font-size="32.00" fill="#ffffff"> &#160;&#160;&#160;&#160;&#160;&#160;ConfigurationItem &#160;&#160;&#160;&#160;&#160;&#160;</text>
<polygon fill="#e7e2dd" stroke="transparent" points="110.71,-1806.39 110.71,-1866.39 508.71,-1866.39 508.71,-1806.39 110.71,-1806.39"/>
<polygon fill="none" stroke="#29235c" points="110.71,-1806.39 110.71,-1866.39 508.71,-1866.39 508.71,-1806.39 110.71,-1806.39"/>
<text text-anchor="start" x="121.71" y="-1827.59" font-family="Helvetica,sans-Serif" font-weight="bold" font-size="32.00" fill="#29235c">id</text>
<text text-anchor="start" x="146.6" y="-1827.59" font-family="Helvetica,sans-Serif" font-size="32.00" fill="#29235c"> &#160;&#160;&#160;</text>
<text text-anchor="start" x="355.5" y="-1827.59" font-family="Helvetica,sans-Serif" font-style="italic" font-size="32.00" fill="#29235c">INTEGER</text>
<polygon fill="#e7e2dd" stroke="transparent" points="110.71,-1746.39 110.71,-1806.39 508.71,-1806.39 508.71,-1746.39 110.71,-1746.39"/>
<polygon fill="none" stroke="#29235c" points="110.71,-1746.39 110.71,-1806.39 508.71,-1806.39 508.71,-1746.39 110.71,-1746.39"/>
<text text-anchor="start" x="121.71" y="-1766.59" font-family="Helvetica,sans-Serif" font-size="32.00" fill="#29235c">name &#160;&#160;&#160;</text>
<text text-anchor="start" x="341.29" y="-1767.59" font-family="Helvetica,sans-Serif" font-style="italic" font-size="32.00" fill="#29235c">VARCHAR</text>
<polygon fill="#e7e2dd" stroke="transparent" points="110.71,-1686.39 110.71,-1746.39 508.71,-1746.39 508.71,-1686.39 110.71,-1686.39"/>
<polygon fill="none" stroke="#29235c" points="110.71,-1686.39 110.71,-1746.39 508.71,-1746.39 508.71,-1686.39 110.71,-1686.39"/>
<text text-anchor="start" x="121.71" y="-1706.59" font-family="Helvetica,sans-Serif" font-size="32.00" fill="#29235c">type_id &#160;&#160;&#160;</text>
<text text-anchor="start" x="355.5" y="-1707.59" font-family="Helvetica,sans-Serif" font-style="italic" font-size="32.00" fill="#29235c">INTEGER</text>
<polygon fill="#e7e2dd" stroke="transparent" points="110.71,-1626.39 110.71,-1686.39 508.71,-1686.39 508.71,-1626.39 110.71,-1626.39"/>
<polygon fill="none" stroke="#29235c" points="110.71,-1626.39 110.71,-1686.39 508.71,-1686.39 508.71,-1626.39 110.71,-1626.39"/>
<text text-anchor="start" x="121.71" y="-1646.59" font-family="Helvetica,sans-Serif" font-size="32.00" fill="#29235c">vendor_id &#160;&#160;&#160;</text>
<text text-anchor="start" x="355.5" y="-1647.59" font-family="Helvetica,sans-Serif" font-style="italic" font-size="32.00" fill="#29235c">INTEGER</text>
<polygon fill="none" stroke="#29235c" stroke-width="2" points="109.71,-1625.39 109.71,-1927.39 509.71,-1927.39 509.71,-1625.39 109.71,-1625.39"/>
</g>
<!-- ConfigurationItem&#45;&gt;Vendor -->
<!-- ConfigurationItem&#45;&gt;Vendor -->
<g id="edge10" class="edge">
<title>ConfigurationItem:e&#45;&gt;Vendor:w</title>
<path fill="none" stroke="#29235c" stroke-width="3" d="M509.71,-1656.39C665.58,-1656.39 583.19,-1837.27 655.43,-1975.39 727.82,-2113.83 681.09,-2277.2 828.64,-2284.16"/>
<polygon fill="#29235c" stroke="#29235c" stroke-width="3" points="828.57,-2287.66 838.64,-2284.39 828.73,-2280.66 828.57,-2287.66"/>
<text text-anchor="middle" x="832.42" y="-2293.99" font-family="Helvetica,sans-Serif" font-size="32.00" fill="#29235c">*</text>
<text text-anchor="middle" x="500.82" y="-1627.59" font-family="Helvetica,sans-Serif" font-size="32.00" fill="#29235c">1</text>
</g>
<!-- DeviceType -->
<g id="DeviceType" class="node">
<title>DeviceType</title>
<ellipse fill="none" stroke="black" stroke-width="0" cx="985.64" cy="-1836.39" rx="265.33" ry="130.22"/>
<polygon fill="#1d71b8" stroke="transparent" points="800.64,-1866.39 800.64,-1926.39 1171.64,-1926.39 1171.64,-1866.39 800.64,-1866.39"/>
<polygon fill="none" stroke="#29235c" points="800.64,-1866.39 800.64,-1926.39 1171.64,-1926.39 1171.64,-1866.39 800.64,-1866.39"/>
<text text-anchor="start" x="839.44" y="-1887.59" font-family="Helvetica,sans-Serif" font-weight="bold" font-size="32.00" fill="#ffffff"> &#160;&#160;&#160;&#160;&#160;&#160;DeviceType &#160;&#160;&#160;&#160;&#160;&#160;</text>
<polygon fill="#e7e2dd" stroke="transparent" points="800.64,-1806.39 800.64,-1866.39 1171.64,-1866.39 1171.64,-1806.39 800.64,-1806.39"/>
<polygon fill="none" stroke="#29235c" points="800.64,-1806.39 800.64,-1866.39 1171.64,-1866.39 1171.64,-1806.39 800.64,-1806.39"/>
<text text-anchor="start" x="811.64" y="-1827.59" font-family="Helvetica,sans-Serif" font-weight="bold" font-size="32.00" fill="#29235c">id</text>
<text text-anchor="start" x="836.53" y="-1827.59" font-family="Helvetica,sans-Serif" font-size="32.00" fill="#29235c"> &#160;&#160;&#160;</text>
<text text-anchor="start" x="1018.43" y="-1827.59" font-family="Helvetica,sans-Serif" font-style="italic" font-size="32.00" fill="#29235c">INTEGER</text>
<polygon fill="#e7e2dd" stroke="transparent" points="800.64,-1746.39 800.64,-1806.39 1171.64,-1806.39 1171.64,-1746.39 800.64,-1746.39"/>
<polygon fill="none" stroke="#29235c" points="800.64,-1746.39 800.64,-1806.39 1171.64,-1806.39 1171.64,-1746.39 800.64,-1746.39"/>
<text text-anchor="start" x="811.22" y="-1766.59" font-family="Helvetica,sans-Serif" font-size="32.00" fill="#29235c">type_name &#160;&#160;&#160;</text>
<text text-anchor="start" x="1004.43" y="-1767.59" font-family="Helvetica,sans-Serif" font-style="italic" font-size="32.00" fill="#29235c">VARCHAR</text>
<polygon fill="none" stroke="#29235c" stroke-width="2" points="799.14,-1745.39 799.14,-1927.39 1172.14,-1927.39 1172.14,-1745.39 799.14,-1745.39"/>
</g>
<!-- ConfigurationItem&#45;&gt;DeviceType -->
<!-- ConfigurationItem&#45;&gt;DeviceType -->
<g id="edge8" class="edge">
<title>ConfigurationItem:e&#45;&gt;DeviceType:w</title>
<path fill="none" stroke="#29235c" stroke-width="3" d="M509.71,-1716.39C645.63,-1716.39 659.54,-1830.37 789.27,-1836.16"/>
<polygon fill="#29235c" stroke="#29235c" stroke-width="3" points="789.57,-1839.67 799.64,-1836.39 789.72,-1832.67 789.57,-1839.67"/>
<text text-anchor="middle" x="793.42" y="-1807.59" font-family="Helvetica,sans-Serif" font-size="32.00" fill="#29235c">*</text>
<text text-anchor="middle" x="500.82" y="-1687.59" font-family="Helvetica,sans-Serif" font-size="32.00" fill="#29235c">1</text>
</g>
<!-- Incident -->
<g id="Incident" class="node">
<title>Incident</title>
<ellipse fill="none" stroke="black" stroke-width="0" cx="985.64" cy="-257.39" rx="310.34" ry="257.27"/>
<polygon fill="#1d71b8" stroke="transparent" points="768.64,-377.39 768.64,-437.39 1203.64,-437.39 1203.64,-377.39 768.64,-377.39"/>
<polygon fill="none" stroke="#29235c" points="768.64,-377.39 768.64,-437.39 1203.64,-437.39 1203.64,-377.39 768.64,-377.39"/>
<text text-anchor="start" x="867.87" y="-398.59" font-family="Helvetica,sans-Serif" font-weight="bold" font-size="32.00" fill="#ffffff"> &#160;&#160;&#160;&#160;&#160;&#160;Incident &#160;&#160;&#160;&#160;&#160;&#160;</text>
<polygon fill="#e7e2dd" stroke="transparent" points="768.64,-317.39 768.64,-377.39 1203.64,-377.39 1203.64,-317.39 768.64,-317.39"/>
<polygon fill="none" stroke="#29235c" points="768.64,-317.39 768.64,-377.39 1203.64,-377.39 1203.64,-317.39 768.64,-317.39"/>
<text text-anchor="start" x="779.64" y="-338.59" font-family="Helvetica,sans-Serif" font-weight="bold" font-size="32.00" fill="#29235c">id</text>
<text text-anchor="start" x="804.53" y="-338.59" font-family="Helvetica,sans-Serif" font-size="32.00" fill="#29235c"> &#160;&#160;&#160;</text>
<text text-anchor="start" x="1050.43" y="-338.59" font-family="Helvetica,sans-Serif" font-style="italic" font-size="32.00" fill="#29235c">INTEGER</text>
<polygon fill="#e7e2dd" stroke="transparent" points="768.64,-257.39 768.64,-317.39 1203.64,-317.39 1203.64,-257.39 768.64,-257.39"/>
<polygon fill="none" stroke="#29235c" points="768.64,-257.39 768.64,-317.39 1203.64,-317.39 1203.64,-257.39 768.64,-257.39"/>
<text text-anchor="start" x="779.64" y="-277.59" font-family="Helvetica,sans-Serif" font-size="32.00" fill="#29235c">description &#160;&#160;&#160;</text>
<text text-anchor="start" x="1036.22" y="-278.59" font-family="Helvetica,sans-Serif" font-style="italic" font-size="32.00" fill="#29235c">VARCHAR</text>
<polygon fill="#e7e2dd" stroke="transparent" points="768.64,-197.39 768.64,-257.39 1203.64,-257.39 1203.64,-197.39 768.64,-197.39"/>
<polygon fill="none" stroke="#29235c" points="768.64,-197.39 768.64,-257.39 1203.64,-257.39 1203.64,-197.39 768.64,-197.39"/>
<text text-anchor="start" x="779.64" y="-217.59" font-family="Helvetica,sans-Serif" font-size="32.00" fill="#29235c">report_time &#160;&#160;&#160;</text>
<text text-anchor="start" x="1030.88" y="-218.59" font-family="Helvetica,sans-Serif" font-style="italic" font-size="32.00" fill="#29235c">DATETIME</text>
<polygon fill="#e7e2dd" stroke="transparent" points="768.64,-137.39 768.64,-197.39 1203.64,-197.39 1203.64,-137.39 768.64,-137.39"/>
<polygon fill="none" stroke="#29235c" points="768.64,-137.39 768.64,-197.39 1203.64,-197.39 1203.64,-137.39 768.64,-137.39"/>
<text text-anchor="start" x="779.4" y="-157.59" font-family="Helvetica,sans-Serif" font-size="32.00" fill="#29235c">resolution_time &#160;&#160;&#160;</text>
<text text-anchor="start" x="1031.26" y="-158.59" font-family="Helvetica,sans-Serif" font-style="italic" font-size="32.00" fill="#29235c">DATETIME</text>
<polygon fill="#e7e2dd" stroke="transparent" points="768.64,-77.39 768.64,-137.39 1203.64,-137.39 1203.64,-77.39 768.64,-77.39"/>
<polygon fill="none" stroke="#29235c" points="768.64,-77.39 768.64,-137.39 1203.64,-137.39 1203.64,-77.39 768.64,-77.39"/>
<text text-anchor="start" x="779.64" y="-97.59" font-family="Helvetica,sans-Serif" font-size="32.00" fill="#29235c">server_id &#160;&#160;&#160;</text>
<text text-anchor="start" x="1050.43" y="-98.59" font-family="Helvetica,sans-Serif" font-style="italic" font-size="32.00" fill="#29235c">INTEGER</text>
<polygon fill="none" stroke="#29235c" stroke-width="2" points="767.14,-76.39 767.14,-438.39 1204.14,-438.39 1204.14,-76.39 767.14,-76.39"/>
</g>
<!-- Incident&#45;&gt;Server -->
<!-- Incident&#45;&gt;Server -->
<g id="edge12" class="edge">
<title>Incident:e&#45;&gt;Server:w</title>
<path fill="none" stroke="#29235c" stroke-width="3" d="M1204.64,-107.39C1376.17,-107.39 1260.19,-831.74 1419.92,-861.45"/>
<polygon fill="#29235c" stroke="#29235c" stroke-width="3" points="1420.05,-864.97 1430.32,-862.39 1420.68,-858 1420.05,-864.97"/>
<text text-anchor="middle" x="1436.54" y="-871.99" font-family="Helvetica,sans-Serif" font-size="32.00" fill="#29235c">*</text>
<text text-anchor="middle" x="1195.75" y="-78.59" font-family="Helvetica,sans-Serif" font-size="32.00" fill="#29235c">1</text>
</g>
<!-- Location -->
<g id="Location" class="node">
<title>Location</title>
<ellipse fill="none" stroke="black" stroke-width="0" cx="2150.83" cy="-832.39" rx="234.1" ry="172.57"/>
<polygon fill="#1d71b8" stroke="transparent" points="1987.83,-892.39 1987.83,-952.39 2314.83,-952.39 2314.83,-892.39 1987.83,-892.39"/>
<polygon fill="none" stroke="#29235c" points="1987.83,-892.39 1987.83,-952.39 2314.83,-952.39 2314.83,-892.39 1987.83,-892.39"/>
<text text-anchor="start" x="2028.61" y="-913.59" font-family="Helvetica,sans-Serif" font-weight="bold" font-size="32.00" fill="#ffffff"> &#160;&#160;&#160;&#160;&#160;&#160;Location &#160;&#160;&#160;&#160;&#160;&#160;</text>
<polygon fill="#e7e2dd" stroke="transparent" points="1987.83,-832.39 1987.83,-892.39 2314.83,-892.39 2314.83,-832.39 1987.83,-832.39"/>
<polygon fill="none" stroke="#29235c" points="1987.83,-832.39 1987.83,-892.39 2314.83,-892.39 2314.83,-832.39 1987.83,-832.39"/>
<text text-anchor="start" x="1998.83" y="-853.59" font-family="Helvetica,sans-Serif" font-weight="bold" font-size="32.00" fill="#29235c">id</text>
<text text-anchor="start" x="2023.72" y="-853.59" font-family="Helvetica,sans-Serif" font-size="32.00" fill="#29235c"> &#160;&#160;&#160;</text>
<text text-anchor="start" x="2161.61" y="-853.59" font-family="Helvetica,sans-Serif" font-style="italic" font-size="32.00" fill="#29235c">INTEGER</text>
<polygon fill="#e7e2dd" stroke="transparent" points="1987.83,-772.39 1987.83,-832.39 2314.83,-832.39 2314.83,-772.39 1987.83,-772.39"/>
<polygon fill="none" stroke="#29235c" points="1987.83,-772.39 1987.83,-832.39 2314.83,-832.39 2314.83,-772.39 1987.83,-772.39"/>
<text text-anchor="start" x="1998.83" y="-792.59" font-family="Helvetica,sans-Serif" font-size="32.00" fill="#29235c">name &#160;&#160;&#160;</text>
<text text-anchor="start" x="2147.41" y="-793.59" font-family="Helvetica,sans-Serif" font-style="italic" font-size="32.00" fill="#29235c">VARCHAR</text>
<polygon fill="#e7e2dd" stroke="transparent" points="1987.83,-712.39 1987.83,-772.39 2314.83,-772.39 2314.83,-712.39 1987.83,-712.39"/>
<polygon fill="none" stroke="#29235c" points="1987.83,-712.39 1987.83,-772.39 2314.83,-772.39 2314.83,-712.39 1987.83,-712.39"/>
<text text-anchor="start" x="1998.64" y="-732.59" font-family="Helvetica,sans-Serif" font-size="32.00" fill="#29235c">address &#160;&#160;&#160;</text>
<text text-anchor="start" x="2147.62" y="-733.59" font-family="Helvetica,sans-Serif" font-style="italic" font-size="32.00" fill="#29235c">VARCHAR</text>
<polygon fill="none" stroke="#29235c" stroke-width="2" points="1986.33,-711.39 1986.33,-953.39 2315.33,-953.39 2315.33,-711.39 1986.33,-711.39"/>
</g>
<!-- Server&#45;&gt;Location -->
<!-- Server&#45;&gt;Location -->
<g id="edge14" class="edge">
<title>Server:e&#45;&gt;Location:w</title>
<path fill="none" stroke="#29235c" stroke-width="3" d="M1802.32,-682.39C1913.3,-682.39 1874.9,-851.31 1976.55,-861.87"/>
<polygon fill="#29235c" stroke="#29235c" stroke-width="3" points="1976.67,-865.38 1986.83,-862.39 1977.02,-858.39 1976.67,-865.38"/>
<text text-anchor="middle" x="1980.61" y="-833.59" font-family="Helvetica,sans-Serif" font-size="32.00" fill="#29235c">*</text>
<text text-anchor="middle" x="1793.43" y="-653.59" font-family="Helvetica,sans-Serif" font-size="32.00" fill="#29235c">1</text>
</g>
<!-- MaintenanceSchedule -->
<g id="MaintenanceSchedule" class="node">
<title>MaintenanceSchedule</title>
<ellipse fill="none" stroke="black" stroke-width="0" cx="985.64" cy="-1515.39" rx="330.44" ry="172.57"/>
<polygon fill="#1d71b8" stroke="transparent" points="754.64,-1575.39 754.64,-1635.39 1217.64,-1635.39 1217.64,-1575.39 754.64,-1575.39"/>
<polygon fill="none" stroke="#29235c" points="754.64,-1575.39 754.64,-1635.39 1217.64,-1635.39 1217.64,-1575.39 754.64,-1575.39"/>
<text text-anchor="start" x="765.62" y="-1596.59" font-family="Helvetica,sans-Serif" font-weight="bold" font-size="32.00" fill="#ffffff"> &#160;&#160;&#160;&#160;&#160;&#160;MaintenanceSchedule &#160;&#160;&#160;&#160;&#160;&#160;</text>
<polygon fill="#e7e2dd" stroke="transparent" points="754.64,-1515.39 754.64,-1575.39 1217.64,-1575.39 1217.64,-1515.39 754.64,-1515.39"/>
<polygon fill="none" stroke="#29235c" points="754.64,-1515.39 754.64,-1575.39 1217.64,-1575.39 1217.64,-1515.39 754.64,-1515.39"/>
<text text-anchor="start" x="765.64" y="-1536.59" font-family="Helvetica,sans-Serif" font-weight="bold" font-size="32.00" fill="#29235c">id</text>
<text text-anchor="start" x="790.53" y="-1536.59" font-family="Helvetica,sans-Serif" font-size="32.00" fill="#29235c"> &#160;&#160;&#160;</text>
<text text-anchor="start" x="1064.43" y="-1536.59" font-family="Helvetica,sans-Serif" font-style="italic" font-size="32.00" fill="#29235c">INTEGER</text>
<polygon fill="#e7e2dd" stroke="transparent" points="754.64,-1455.39 754.64,-1515.39 1217.64,-1515.39 1217.64,-1455.39 754.64,-1455.39"/>
<polygon fill="none" stroke="#29235c" points="754.64,-1455.39 754.64,-1515.39 1217.64,-1515.39 1217.64,-1455.39 754.64,-1455.39"/>
<text text-anchor="start" x="765.64" y="-1475.59" font-family="Helvetica,sans-Serif" font-size="32.00" fill="#29235c">server_id &#160;&#160;&#160;</text>
<text text-anchor="start" x="1064.43" y="-1476.59" font-family="Helvetica,sans-Serif" font-style="italic" font-size="32.00" fill="#29235c">INTEGER</text>
<polygon fill="#e7e2dd" stroke="transparent" points="754.64,-1395.39 754.64,-1455.39 1217.64,-1455.39 1217.64,-1395.39 754.64,-1395.39"/>
<polygon fill="none" stroke="#29235c" points="754.64,-1395.39 754.64,-1455.39 1217.64,-1455.39 1217.64,-1395.39 754.64,-1395.39"/>
<text text-anchor="start" x="765.64" y="-1415.59" font-family="Helvetica,sans-Serif" font-size="32.00" fill="#29235c">planned_date &#160;&#160;&#160;</text>
<text text-anchor="start" x="1044.88" y="-1416.59" font-family="Helvetica,sans-Serif" font-style="italic" font-size="32.00" fill="#29235c">DATETIME</text>
<polygon fill="none" stroke="#29235c" stroke-width="2" points="753.14,-1394.39 753.14,-1636.39 1218.14,-1636.39 1218.14,-1394.39 753.14,-1394.39"/>
</g>
<!-- MaintenanceSchedule&#45;&gt;Server -->
<!-- MaintenanceSchedule&#45;&gt;Server -->
<g id="edge16" class="edge">
<title>MaintenanceSchedule:e&#45;&gt;Server:w</title>
<path fill="none" stroke="#29235c" stroke-width="3" d="M1218.64,-1485.39C1298.46,-1485.39 1284.42,-1407.75 1315.86,-1334.39 1399.54,-1139.19 1220.4,-871.18 1420.2,-862.6"/>
<polygon fill="#29235c" stroke="#29235c" stroke-width="3" points="1420.4,-866.1 1430.32,-862.39 1420.25,-859.1 1420.4,-866.1"/>
<text text-anchor="middle" x="1424.1" y="-833.59" font-family="Helvetica,sans-Serif" font-size="32.00" fill="#29235c">*</text>
<text text-anchor="middle" x="1209.75" y="-1456.59" font-family="Helvetica,sans-Serif" font-size="32.00" fill="#29235c">1</text>
</g>
<!-- NetworkInterface -->
<g id="NetworkInterface" class="node">
<title>NetworkInterface</title>
<ellipse fill="none" stroke="black" stroke-width="0" cx="985.64" cy="-1110.39" rx="289.41" ry="214.92"/>
<polygon fill="#1d71b8" stroke="transparent" points="783.64,-1200.39 783.64,-1260.39 1188.64,-1260.39 1188.64,-1200.39 783.64,-1200.39"/>
<polygon fill="none" stroke="#29235c" points="783.64,-1200.39 783.64,-1260.39 1188.64,-1260.39 1188.64,-1200.39 783.64,-1200.39"/>
<text text-anchor="start" x="802.99" y="-1221.59" font-family="Helvetica,sans-Serif" font-weight="bold" font-size="32.00" fill="#ffffff"> &#160;&#160;&#160;&#160;&#160;&#160;NetworkInterface &#160;&#160;&#160;&#160;&#160;&#160;</text>
<polygon fill="#e7e2dd" stroke="transparent" points="783.64,-1140.39 783.64,-1200.39 1188.64,-1200.39 1188.64,-1140.39 783.64,-1140.39"/>
<polygon fill="none" stroke="#29235c" points="783.64,-1140.39 783.64,-1200.39 1188.64,-1200.39 1188.64,-1140.39 783.64,-1140.39"/>
<text text-anchor="start" x="794.64" y="-1161.59" font-family="Helvetica,sans-Serif" font-weight="bold" font-size="32.00" fill="#29235c">id</text>
<text text-anchor="start" x="819.53" y="-1161.59" font-family="Helvetica,sans-Serif" font-size="32.00" fill="#29235c"> &#160;&#160;&#160;</text>
<text text-anchor="start" x="1035.43" y="-1161.59" font-family="Helvetica,sans-Serif" font-style="italic" font-size="32.00" fill="#29235c">INTEGER</text>
<polygon fill="#e7e2dd" stroke="transparent" points="783.64,-1080.39 783.64,-1140.39 1188.64,-1140.39 1188.64,-1080.39 783.64,-1080.39"/>
<polygon fill="none" stroke="#29235c" points="783.64,-1080.39 783.64,-1140.39 1188.64,-1140.39 1188.64,-1080.39 783.64,-1080.39"/>
<text text-anchor="start" x="794.64" y="-1100.59" font-family="Helvetica,sans-Serif" font-size="32.00" fill="#29235c">ip_address &#160;&#160;&#160;</text>
<text text-anchor="start" x="1021.22" y="-1101.59" font-family="Helvetica,sans-Serif" font-style="italic" font-size="32.00" fill="#29235c">VARCHAR</text>
<polygon fill="#e7e2dd" stroke="transparent" points="783.64,-1020.39 783.64,-1080.39 1188.64,-1080.39 1188.64,-1020.39 783.64,-1020.39"/>
<polygon fill="none" stroke="#29235c" points="783.64,-1020.39 783.64,-1080.39 1188.64,-1080.39 1188.64,-1020.39 783.64,-1020.39"/>
<text text-anchor="start" x="794.34" y="-1040.59" font-family="Helvetica,sans-Serif" font-size="32.00" fill="#29235c">mac_address &#160;&#160;&#160;</text>
<text text-anchor="start" x="1021.43" y="-1041.59" font-family="Helvetica,sans-Serif" font-style="italic" font-size="32.00" fill="#29235c">VARCHAR</text>
<polygon fill="#e7e2dd" stroke="transparent" points="783.64,-960.39 783.64,-1020.39 1188.64,-1020.39 1188.64,-960.39 783.64,-960.39"/>
<polygon fill="none" stroke="#29235c" points="783.64,-960.39 783.64,-1020.39 1188.64,-1020.39 1188.64,-960.39 783.64,-960.39"/>
<text text-anchor="start" x="794.64" y="-980.59" font-family="Helvetica,sans-Serif" font-size="32.00" fill="#29235c">server_id &#160;&#160;&#160;</text>
<text text-anchor="start" x="1035.43" y="-981.59" font-family="Helvetica,sans-Serif" font-style="italic" font-size="32.00" fill="#29235c">INTEGER</text>
<polygon fill="none" stroke="#29235c" stroke-width="2" points="782.14,-959.39 782.14,-1261.39 1189.14,-1261.39 1189.14,-959.39 782.14,-959.39"/>
</g>
<!-- NetworkInterface&#45;&gt;Server -->
<!-- NetworkInterface&#45;&gt;Server -->
<g id="edge18" class="edge">
<title>NetworkInterface:e&#45;&gt;Server:w</title>
<path fill="none" stroke="#29235c" stroke-width="3" d="M1189.64,-990.39C1307.37,-990.39 1309.16,-869.53 1420.32,-862.69"/>
<polygon fill="#29235c" stroke="#29235c" stroke-width="3" points="1420.43,-866.19 1430.32,-862.39 1420.22,-859.19 1420.43,-866.19"/>
<text text-anchor="middle" x="1424.1" y="-871.99" font-family="Helvetica,sans-Serif" font-size="32.00" fill="#29235c">*</text>
<text text-anchor="middle" x="1180.75" y="-961.59" font-family="Helvetica,sans-Serif" font-size="32.00" fill="#29235c">1</text>
</g>
<!-- OperatingSystem -->
<g id="OperatingSystem" class="node">
<title>OperatingSystem</title>
<ellipse fill="none" stroke="black" stroke-width="0" cx="309.71" cy="-2672.39" rx="280.94" ry="214.92"/>
<polygon fill="#1d71b8" stroke="transparent" points="113.71,-2762.39 113.71,-2822.39 506.71,-2822.39 506.71,-2762.39 113.71,-2762.39"/>
<polygon fill="none" stroke="#29235c" points="113.71,-2762.39 113.71,-2822.39 506.71,-2822.39 506.71,-2762.39 113.71,-2762.39"/>
<text text-anchor="start" x="124.38" y="-2783.59" font-family="Helvetica,sans-Serif" font-weight="bold" font-size="32.00" fill="#ffffff"> &#160;&#160;&#160;&#160;&#160;&#160;OperatingSystem &#160;&#160;&#160;&#160;&#160;&#160;</text>
<polygon fill="#e7e2dd" stroke="transparent" points="113.71,-2702.39 113.71,-2762.39 506.71,-2762.39 506.71,-2702.39 113.71,-2702.39"/>
<polygon fill="none" stroke="#29235c" points="113.71,-2702.39 113.71,-2762.39 506.71,-2762.39 506.71,-2702.39 113.71,-2702.39"/>
<text text-anchor="start" x="124.71" y="-2723.59" font-family="Helvetica,sans-Serif" font-weight="bold" font-size="32.00" fill="#29235c">id</text>
<text text-anchor="start" x="149.6" y="-2723.59" font-family="Helvetica,sans-Serif" font-size="32.00" fill="#29235c"> &#160;&#160;&#160;</text>
<text text-anchor="start" x="353.5" y="-2723.59" font-family="Helvetica,sans-Serif" font-style="italic" font-size="32.00" fill="#29235c">INTEGER</text>
<polygon fill="#e7e2dd" stroke="transparent" points="113.71,-2642.39 113.71,-2702.39 506.71,-2702.39 506.71,-2642.39 113.71,-2642.39"/>
<polygon fill="none" stroke="#29235c" points="113.71,-2642.39 113.71,-2702.39 506.71,-2702.39 506.71,-2642.39 113.71,-2642.39"/>
<text text-anchor="start" x="124.71" y="-2662.59" font-family="Helvetica,sans-Serif" font-size="32.00" fill="#29235c">name &#160;&#160;&#160;</text>
<text text-anchor="start" x="339.29" y="-2663.59" font-family="Helvetica,sans-Serif" font-style="italic" font-size="32.00" fill="#29235c">VARCHAR</text>
<polygon fill="#e7e2dd" stroke="transparent" points="113.71,-2582.39 113.71,-2642.39 506.71,-2642.39 506.71,-2582.39 113.71,-2582.39"/>
<polygon fill="none" stroke="#29235c" points="113.71,-2582.39 113.71,-2642.39 506.71,-2642.39 506.71,-2582.39 113.71,-2582.39"/>
<text text-anchor="start" x="124.71" y="-2602.59" font-family="Helvetica,sans-Serif" font-size="32.00" fill="#29235c">version &#160;&#160;&#160;</text>
<text text-anchor="start" x="339.29" y="-2603.59" font-family="Helvetica,sans-Serif" font-style="italic" font-size="32.00" fill="#29235c">VARCHAR</text>
<polygon fill="#e7e2dd" stroke="transparent" points="113.71,-2522.39 113.71,-2582.39 506.71,-2582.39 506.71,-2522.39 113.71,-2522.39"/>
<polygon fill="none" stroke="#29235c" points="113.71,-2522.39 113.71,-2582.39 506.71,-2582.39 506.71,-2522.39 113.71,-2522.39"/>
<text text-anchor="start" x="124.71" y="-2542.59" font-family="Helvetica,sans-Serif" font-size="32.00" fill="#29235c">vendor_id &#160;&#160;&#160;</text>
<text text-anchor="start" x="353.5" y="-2543.59" font-family="Helvetica,sans-Serif" font-style="italic" font-size="32.00" fill="#29235c">INTEGER</text>
<polygon fill="none" stroke="#29235c" stroke-width="2" points="112.21,-2521.39 112.21,-2823.39 507.21,-2823.39 507.21,-2521.39 112.21,-2521.39"/>
</g>
<!-- OperatingSystem&#45;&gt;Vendor -->
<!-- OperatingSystem&#45;&gt;Vendor -->
<g id="edge20" class="edge">
<title>OperatingSystem:e&#45;&gt;Vendor:w</title>
<path fill="none" stroke="#29235c" stroke-width="3" d="M507.71,-2552.39C693.56,-2552.39 651.02,-2293.98 828.62,-2284.65"/>
<polygon fill="#29235c" stroke="#29235c" stroke-width="3" points="828.74,-2288.14 838.64,-2284.39 828.56,-2281.15 828.74,-2288.14"/>
<text text-anchor="middle" x="844.87" y="-2255.59" font-family="Helvetica,sans-Serif" font-size="32.00" fill="#29235c">*</text>
<text text-anchor="middle" x="498.82" y="-2561.99" font-family="Helvetica,sans-Serif" font-size="32.00" fill="#29235c">1</text>
</g>
</g>
</svg>
